<?xml version="1.0" encoding="utf-8"?>
<svg xmlns="http://www.w3.org/2000/svg" viewBox="290.544 329.319 104.666 104.155" xmlns:bx="https://boxy-svg.com" width="104.666px" height="104.155px"><path d="M 139.965 257.544 Q 139.965 260.633 138.895 263.286 Q 137.826 265.939 135.906 267.88 Q 133.985 269.82 131.332 270.909 Q 128.679 271.998 125.55 271.998 L 87.812 271.998 L 87.812 261.702 L 125.55 261.702 Q 127.451 261.702 128.52 260.613 Q 129.59 259.524 129.59 257.544 L 129.59 215.212 L 139.965 215.212 Z M 196.938 257.544 Q 196.938 260.197 196.264 262.316 Q 195.591 264.434 194.482 266.038 Q 193.374 267.642 191.908 268.771 Q 190.443 269.899 188.84 270.612 Q 187.236 271.325 185.592 271.661 Q 183.949 271.998 182.484 271.998 L 163.912 271.998 Q 161.773 271.998 159.239 271.246 Q 156.704 270.493 154.546 268.771 Q 152.388 267.048 150.943 264.296 Q 149.497 261.544 149.497 257.544 L 149.497 243.605 Q 149.497 239.645 150.943 236.893 Q 152.388 234.141 154.546 232.418 Q 156.704 230.696 159.239 229.943 Q 161.773 229.191 163.912 229.191 L 182.484 229.191 Q 186.444 229.191 189.216 230.616 Q 191.988 232.042 193.69 234.2 Q 195.393 236.358 196.165 238.893 Q 196.938 241.427 196.938 243.605 Z M 186.642 243.684 Q 186.642 241.546 185.573 240.516 Q 184.503 239.487 182.484 239.487 L 163.991 239.487 Q 161.932 239.487 160.862 240.536 Q 159.793 241.585 159.793 243.605 L 159.793 257.544 Q 159.793 259.564 160.862 260.633 Q 161.932 261.702 163.991 261.702 L 182.484 261.702 Q 184.583 261.702 185.612 260.633 Q 186.642 259.564 186.642 257.544 Z M 252.895 257.544 Q 252.895 259.009 252.559 260.633 Q 252.222 262.256 251.509 263.86 Q 250.796 265.464 249.668 266.929 Q 248.539 268.394 246.935 269.523 Q 245.332 270.652 243.233 271.325 Q 241.134 271.998 238.481 271.998 L 219.909 271.998 Q 218.443 271.998 216.82 271.661 Q 215.196 271.325 213.593 270.612 Q 211.989 269.899 210.524 268.771 Q 209.058 267.642 207.93 266.038 Q 206.801 264.434 206.128 262.316 Q 205.455 260.197 205.455 257.544 L 205.455 211.094 L 215.751 211.094 L 215.751 257.544 Q 215.751 259.445 216.939 260.573 Q 218.127 261.702 219.909 261.702 L 238.481 261.702 Q 240.421 261.702 241.51 260.554 Q 242.599 259.405 242.599 257.544 L 242.599 243.605 Q 242.599 241.665 241.451 240.576 Q 240.302 239.487 238.481 239.487 L 219.909 239.487 L 219.909 229.191 L 238.481 229.191 Q 239.946 229.191 241.57 229.527 Q 243.193 229.864 244.797 230.577 Q 246.401 231.29 247.866 232.418 Q 249.331 233.547 250.44 235.151 Q 251.549 236.754 252.222 238.853 Q 252.895 240.952 252.895 243.605 Z M 299.898 271.998 L 289.602 271.998 L 289.602 243.605 Q 289.602 241.585 288.533 240.536 Q 287.464 239.487 285.365 239.487 L 271.981 239.487 L 271.981 271.998 L 261.685 271.998 L 261.685 234.299 Q 261.685 233.23 262.081 232.299 Q 262.477 231.369 263.189 230.676 Q 263.902 229.983 264.853 229.587 Q 265.803 229.191 266.872 229.191 L 285.444 229.191 Q 287.583 229.191 290.038 229.943 Q 292.493 230.696 294.711 232.359 L 294.711 229.191 L 308.65 229.191 Q 310.115 229.191 311.739 229.527 Q 313.362 229.864 314.966 230.577 Q 316.57 231.29 318.035 232.418 Q 319.5 233.547 320.609 235.151 Q 321.718 236.754 322.391 238.853 Q 323.064 240.952 323.064 243.605 L 323.064 271.998 L 312.768 271.998 L 312.768 243.605 Q 312.768 241.585 311.758 240.536 Q 310.749 239.487 308.65 239.487 L 299.383 239.487 Q 299.898 241.387 299.898 243.605 Z M 376.712 257.821 Q 376.712 259.96 375.959 262.435 Q 375.207 264.91 373.524 267.028 Q 371.841 269.147 369.128 270.572 Q 366.416 271.998 362.535 271.998 L 343.963 271.998 Q 341.824 271.998 339.349 271.246 Q 336.874 270.493 334.756 268.81 Q 332.637 267.127 331.212 264.415 Q 329.786 261.702 329.786 257.821 Q 329.786 255.683 330.538 253.188 Q 331.291 250.693 332.974 248.575 Q 334.657 246.456 337.369 245.031 Q 340.082 243.605 343.963 243.605 L 362.535 243.605 L 362.535 253.426 L 343.963 253.426 Q 341.864 253.426 340.716 254.713 Q 339.567 256 339.567 257.901 Q 339.567 259.92 340.894 261.049 Q 342.22 262.177 344.042 262.177 L 362.535 262.177 Q 364.634 262.177 365.782 260.91 Q 366.93 259.643 366.93 257.742 L 366.93 243.367 Q 366.93 241.348 365.683 240.16 Q 364.436 238.972 362.535 238.972 L 339.924 238.972 L 339.924 229.191 L 362.535 229.191 Q 364.673 229.191 367.148 229.943 Q 369.623 230.696 371.742 232.379 Q 373.86 234.062 375.286 236.774 Q 376.712 239.487 376.712 243.367 Z M 432.944 271.998 L 422.648 271.998 L 422.648 248.238 Q 422.648 246.219 421.955 244.615 Q 421.262 243.011 420.074 241.863 Q 418.886 240.714 417.282 240.101 Q 415.678 239.487 413.817 239.487 L 395.799 239.487 L 395.799 271.998 L 385.503 271.998 L 385.503 234.299 Q 385.503 233.23 385.899 232.299 Q 386.295 231.369 387.008 230.676 Q 387.721 229.983 388.671 229.587 Q 389.622 229.191 390.691 229.191 L 413.896 229.191 Q 415.837 229.191 417.995 229.626 Q 420.153 230.062 422.271 231.032 Q 424.39 232.002 426.311 233.487 Q 428.231 234.972 429.716 237.091 Q 431.201 239.21 432.072 241.981 Q 432.944 244.753 432.944 248.238 Z" style="fill: rgb(51, 51, 51); text-wrap-mode: nowrap;"/><defs><bx:export><bx:file format="svg" path="Untitled 2.svg"/></bx:export></defs><path d="M 35.151 15.481 H 455.587 V 145.384 H 35.151 V 15.481 Z" style="fill: rgb(23, 23, 29);"/><path d="M 140.302 94.696 Q 140.302 97.785 139.232 100.438 Q 138.163 103.091 136.243 105.032 Q 134.322 106.972 131.669 108.061 Q 129.016 109.15 125.887 109.15 L 88.149 109.15 L 88.149 98.854 L 125.887 98.854 Q 127.788 98.854 128.857 97.765 Q 129.927 96.676 129.927 94.696 L 129.927 52.364 L 140.302 52.364 Z M 197.275 94.696 Q 197.275 97.349 196.601 99.468 Q 195.928 101.586 194.819 103.19 Q 193.711 104.794 192.246 105.923 Q 190.78 107.051 189.177 107.764 Q 187.573 108.477 185.929 108.813 Q 184.286 109.15 182.821 109.15 L 164.249 109.15 Q 162.11 109.15 159.576 108.398 Q 157.041 107.645 154.883 105.923 Q 152.725 104.2 151.28 101.448 Q 149.834 98.696 149.834 94.696 L 149.834 80.757 Q 149.834 76.797 151.28 74.045 Q 152.725 71.293 154.883 69.57 Q 157.041 67.848 159.576 67.095 Q 162.11 66.343 164.249 66.343 L 182.821 66.343 Q 186.781 66.343 189.553 67.768 Q 192.325 69.194 194.027 71.352 Q 195.73 73.51 196.502 76.045 Q 197.275 78.579 197.275 80.757 Z M 186.979 80.836 Q 186.979 78.698 185.91 77.668 Q 184.84 76.639 182.821 76.639 L 164.328 76.639 Q 162.269 76.639 161.199 77.688 Q 160.13 78.738 160.13 80.757 L 160.13 94.696 Q 160.13 96.716 161.199 97.785 Q 162.269 98.854 164.328 98.854 L 182.821 98.854 Q 184.92 98.854 185.949 97.785 Q 186.979 96.716 186.979 94.696 Z M 253.232 94.696 Q 253.232 96.161 252.896 97.785 Q 252.559 99.408 251.846 101.012 Q 251.133 102.616 250.005 104.081 Q 248.876 105.546 247.272 106.675 Q 245.669 107.804 243.57 108.477 Q 241.471 109.15 238.818 109.15 L 220.246 109.15 Q 218.78 109.15 217.157 108.813 Q 215.533 108.477 213.93 107.764 Q 212.326 107.051 210.861 105.923 Q 209.395 104.794 208.267 103.19 Q 207.138 101.586 206.465 99.468 Q 205.792 97.349 205.792 94.696 L 205.792 48.246 L 216.088 48.246 L 216.088 94.696 Q 216.088 96.597 217.276 97.726 Q 218.464 98.854 220.246 98.854 L 238.818 98.854 Q 240.758 98.854 241.847 97.706 Q 242.936 96.557 242.936 94.696 L 242.936 80.757 Q 242.936 78.817 241.788 77.728 Q 240.639 76.639 238.818 76.639 L 220.246 76.639 L 220.246 66.343 L 238.818 66.343 Q 240.283 66.343 241.907 66.679 Q 243.53 67.016 245.134 67.729 Q 246.738 68.442 248.203 69.57 Q 249.668 70.699 250.777 72.303 Q 251.886 73.906 252.559 76.005 Q 253.232 78.104 253.232 80.757 Z M 300.235 109.15 L 289.939 109.15 L 289.939 80.757 Q 289.939 78.738 288.87 77.688 Q 287.801 76.639 285.702 76.639 L 272.318 76.639 L 272.318 109.15 L 262.022 109.15 L 262.022 71.451 Q 262.022 70.382 262.418 69.451 Q 262.814 68.521 263.526 67.828 Q 264.239 67.135 265.19 66.739 Q 266.14 66.343 267.209 66.343 L 285.781 66.343 Q 287.92 66.343 290.375 67.095 Q 292.83 67.848 295.048 69.511 L 295.048 66.343 L 308.987 66.343 Q 310.452 66.343 312.076 66.679 Q 313.699 67.016 315.303 67.729 Q 316.907 68.442 318.372 69.57 Q 319.837 70.699 320.946 72.303 Q 322.055 73.906 322.728 76.005 Q 323.401 78.104 323.401 80.757 L 323.401 109.15 L 313.105 109.15 L 313.105 80.757 Q 313.105 78.738 312.095 77.688 Q 311.086 76.639 308.987 76.639 L 299.72 76.639 Q 300.235 78.54 300.235 80.757 Z M 377.049 94.973 Q 377.049 97.112 376.296 99.587 Q 375.544 102.062 373.861 104.18 Q 372.178 106.299 369.465 107.724 Q 366.753 109.15 362.872 109.15 L 344.3 109.15 Q 342.161 109.15 339.686 108.398 Q 337.211 107.645 335.093 105.962 Q 332.974 104.279 331.549 101.567 Q 330.123 98.854 330.123 94.973 Q 330.123 92.835 330.875 90.34 Q 331.628 87.845 333.311 85.727 Q 334.994 83.608 337.706 82.183 Q 340.419 80.757 344.3 80.757 L 362.872 80.757 L 362.872 90.578 L 344.3 90.578 Q 342.201 90.578 341.053 91.865 Q 339.904 93.152 339.904 95.053 Q 339.904 97.072 341.231 98.201 Q 342.557 99.329 344.379 99.329 L 362.872 99.329 Q 364.971 99.329 366.119 98.062 Q 367.268 96.795 367.268 94.894 L 367.268 80.519 Q 367.268 78.5 366.02 77.312 Q 364.773 76.124 362.872 76.124 L 340.261 76.124 L 340.261 66.343 L 362.872 66.343 Q 365.01 66.343 367.485 67.095 Q 369.96 67.848 372.079 69.531 Q 374.197 71.214 375.623 73.926 Q 377.049 76.639 377.049 80.519 Z M 433.281 109.15 L 422.985 109.15 L 422.985 85.39 Q 422.985 83.371 422.292 81.767 Q 421.599 80.163 420.411 79.015 Q 419.223 77.866 417.619 77.253 Q 416.015 76.639 414.154 76.639 L 396.136 76.639 L 396.136 109.15 L 385.84 109.15 L 385.84 71.451 Q 385.84 70.382 386.236 69.451 Q 386.632 68.521 387.345 67.828 Q 388.058 67.135 389.008 66.739 Q 389.959 66.343 391.028 66.343 L 414.233 66.343 Q 416.174 66.343 418.332 66.778 Q 420.49 67.214 422.608 68.184 Q 424.727 69.154 426.648 70.639 Q 428.568 72.124 430.053 74.243 Q 431.538 76.362 432.409 79.133 Q 433.281 81.905 433.281 85.39 Z" style="fill: rgb(246, 245, 248); text-wrap-mode: nowrap;"/><g transform="matrix(1, 0, 0, 1, 137.05481, -4.519777)"><path d="M 135.935 400.934 Q 135.935 404.023 134.865 406.676 Q 133.796 409.329 131.876 411.27 Q 129.955 413.21 127.302 414.299 Q 124.649 415.388 121.52 415.388 L 83.782 415.388 L 83.782 405.092 L 121.52 405.092 Q 123.421 405.092 124.49 404.003 Q 125.56 402.914 125.56 400.934 L 125.56 358.602 L 135.935 358.602 Z" style="fill: rgb(51, 51, 51); text-wrap-mode: nowrap;"/><g style="" transform="matrix(0.911788, 0, 0, 0.911788, 8.231135, 35.838402)"><rect x="176.691" y="194.858" width="10.315" height="47.277" style="fill: rgb(115, 83, 237); stroke-linejoin: round; stroke-linecap: round; stroke-width: 0; transform-origin: 181.849px 218.497px;" transform="matrix(0.707107, -0.707107, 0.707107, 0.707107, -108.898871, 152.626044)"/><rect x="176.691" y="194.858" width="10.315" height="47.277" style="fill: rgb(115, 83, 237); stroke-linejoin: round; stroke-linecap: round; stroke-width: 0; transform-origin: 181.849px 218.497px;" transform="matrix(-0.707107, -0.707107, 0.707107, -0.707107, -108.904958, 178.754573)"/></g></g><g style="" transform="matrix(0.911788, 0, 0, 0.911788, 6.695377, -107.541443)"><rect x="176.691" y="194.858" width="10.315" height="47.277" style="fill: rgb(115, 83, 237); stroke-linejoin: round; stroke-linecap: round; stroke-width: 0; transform-origin: 181.849px 218.497px;" transform="matrix(0.707107, -0.707107, 0.707107, 0.707107, -108.898871, 152.626044)"/><rect x="176.691" y="194.858" width="10.315" height="47.277" style="fill: rgb(115, 83, 237); stroke-linejoin: round; stroke-linecap: round; stroke-width: 0; transform-origin: 181.849px 218.497px;" transform="matrix(-0.707107, -0.707107, 0.707107, -0.707107, -108.904958, 178.754573)"/></g><path d="M 154.418 177.523 H 163.432 V 220.595 H 154.418 V 177.523 Z" style="fill: rgb(115, 83, 237); stroke-linejoin: round; stroke-linecap: round; stroke-width: 0; transform-origin: 158.926px 199.059px;" transform="matrix(0.707107, -0.707107, 0.707107, 0.707107, -85.938841, -132.491303)"/><path d="M 153.477 177.669 H 162.437 V 220.776 H 153.477 V 177.669 Z" style="fill: rgb(115, 83, 237); stroke-linejoin: round; stroke-linecap: round; stroke-width: 0; transform-origin: 157.958px 199.223px;" transform="matrix(-0.707107, -0.707107, 0.707107, -0.707107, -84.969198, -108.548758)"/><path d="M 290.575 328.895 H 395.575 V 433.895 H 290.575 V 328.895 Z" style="fill: rgb(23, 23, 29); stroke-width: 1;"/><g transform="matrix(1, 0, 0, 1, 246.011688, -3.932878)"><path d="M 135.935 400.934 Q 135.935 404.023 134.865 406.676 Q 133.796 409.329 131.876 411.27 Q 129.955 413.21 127.302 414.299 Q 124.649 415.388 121.52 415.388 L 83.782 415.388 L 83.782 405.092 L 121.52 405.092 Q 123.421 405.092 124.49 404.003 Q 125.56 402.914 125.56 400.934 L 125.56 358.602 L 135.935 358.602 Z" style="fill: rgb(246, 245, 248); text-wrap-mode: nowrap;"/><g style="" transform="matrix(0.911788, 0, 0, 0.911788, 8.231135, 35.838402)"><path d="M 167.67 194.858 H 177.458 V 242.135 H 167.67 V 194.858 Z" style="fill: rgb(115, 83, 237); stroke-linejoin: round; stroke-linecap: round; stroke-width: 0; transform-origin: 172.564px 218.497px;" transform="matrix(0.707107, -0.707107, 0.707107, 0.707107, -99.427906, 152.439839)"/><path d="M 168.939 194.858 H 178.801 V 242.135 H 168.939 V 194.858 Z" style="fill: rgb(115, 83, 237); stroke-linejoin: round; stroke-linecap: round; stroke-width: 0; transform-origin: 173.871px 218.497px;" transform="matrix(-0.707107, -0.707107, 0.707107, -0.707107, -100.76697, 178.914589)"/></g></g></svg>