<?xml version="1.0" encoding="utf-8"?>
<svg xmlns="http://www.w3.org/2000/svg" viewBox="35.402 15.662 419.684 129.039" width="419.684" height="129.039"><path d="M 35.151 15.481 H 455.587 V 145.384 H 35.151 V 15.481 Z" style="fill: rgb(23, 23, 29);" transform="matrix(0.9999999999999999, 0, 0, 0.9999999999999999, 0, 0)"/><path d="M 140.302 94.696 Q 140.302 97.785 139.232 100.438 Q 138.163 103.091 136.243 105.032 Q 134.322 106.972 131.669 108.061 Q 129.016 109.15 125.887 109.15 L 88.149 109.15 L 88.149 98.854 L 125.887 98.854 Q 127.788 98.854 128.857 97.765 Q 129.927 96.676 129.927 94.696 L 129.927 52.364 L 140.302 52.364 Z M 197.275 94.696 Q 197.275 97.349 196.601 99.468 Q 195.928 101.586 194.819 103.19 Q 193.711 104.794 192.246 105.923 Q 190.78 107.051 189.177 107.764 Q 187.573 108.477 185.929 108.813 Q 184.286 109.15 182.821 109.15 L 164.249 109.15 Q 162.11 109.15 159.576 108.398 Q 157.041 107.645 154.883 105.923 Q 152.725 104.2 151.28 101.448 Q 149.834 98.696 149.834 94.696 L 149.834 80.757 Q 149.834 76.797 151.28 74.045 Q 152.725 71.293 154.883 69.57 Q 157.041 67.848 159.576 67.095 Q 162.11 66.343 164.249 66.343 L 182.821 66.343 Q 186.781 66.343 189.553 67.768 Q 192.325 69.194 194.027 71.352 Q 195.73 73.51 196.502 76.045 Q 197.275 78.579 197.275 80.757 Z M 186.979 80.836 Q 186.979 78.698 185.91 77.668 Q 184.84 76.639 182.821 76.639 L 164.328 76.639 Q 162.269 76.639 161.199 77.688 Q 160.13 78.738 160.13 80.757 L 160.13 94.696 Q 160.13 96.716 161.199 97.785 Q 162.269 98.854 164.328 98.854 L 182.821 98.854 Q 184.92 98.854 185.949 97.785 Q 186.979 96.716 186.979 94.696 Z M 253.232 94.696 Q 253.232 96.161 252.896 97.785 Q 252.559 99.408 251.846 101.012 Q 251.133 102.616 250.005 104.081 Q 248.876 105.546 247.272 106.675 Q 245.669 107.804 243.57 108.477 Q 241.471 109.15 238.818 109.15 L 220.246 109.15 Q 218.78 109.15 217.157 108.813 Q 215.533 108.477 213.93 107.764 Q 212.326 107.051 210.861 105.923 Q 209.395 104.794 208.267 103.19 Q 207.138 101.586 206.465 99.468 Q 205.792 97.349 205.792 94.696 L 205.792 48.246 L 216.088 48.246 L 216.088 94.696 Q 216.088 96.597 217.276 97.726 Q 218.464 98.854 220.246 98.854 L 238.818 98.854 Q 240.758 98.854 241.847 97.706 Q 242.936 96.557 242.936 94.696 L 242.936 80.757 Q 242.936 78.817 241.788 77.728 Q 240.639 76.639 238.818 76.639 L 220.246 76.639 L 220.246 66.343 L 238.818 66.343 Q 240.283 66.343 241.907 66.679 Q 243.53 67.016 245.134 67.729 Q 246.738 68.442 248.203 69.57 Q 249.668 70.699 250.777 72.303 Q 251.886 73.906 252.559 76.005 Q 253.232 78.104 253.232 80.757 Z M 300.235 109.15 L 289.939 109.15 L 289.939 80.757 Q 289.939 78.738 288.87 77.688 Q 287.801 76.639 285.702 76.639 L 272.318 76.639 L 272.318 109.15 L 262.022 109.15 L 262.022 71.451 Q 262.022 70.382 262.418 69.451 Q 262.814 68.521 263.526 67.828 Q 264.239 67.135 265.19 66.739 Q 266.14 66.343 267.209 66.343 L 285.781 66.343 Q 287.92 66.343 290.375 67.095 Q 292.83 67.848 295.048 69.511 L 295.048 66.343 L 308.987 66.343 Q 310.452 66.343 312.076 66.679 Q 313.699 67.016 315.303 67.729 Q 316.907 68.442 318.372 69.57 Q 319.837 70.699 320.946 72.303 Q 322.055 73.906 322.728 76.005 Q 323.401 78.104 323.401 80.757 L 323.401 109.15 L 313.105 109.15 L 313.105 80.757 Q 313.105 78.738 312.095 77.688 Q 311.086 76.639 308.987 76.639 L 299.72 76.639 Q 300.235 78.54 300.235 80.757 Z M 377.049 94.973 Q 377.049 97.112 376.296 99.587 Q 375.544 102.062 373.861 104.18 Q 372.178 106.299 369.465 107.724 Q 366.753 109.15 362.872 109.15 L 344.3 109.15 Q 342.161 109.15 339.686 108.398 Q 337.211 107.645 335.093 105.962 Q 332.974 104.279 331.549 101.567 Q 330.123 98.854 330.123 94.973 Q 330.123 92.835 330.875 90.34 Q 331.628 87.845 333.311 85.727 Q 334.994 83.608 337.706 82.183 Q 340.419 80.757 344.3 80.757 L 362.872 80.757 L 362.872 90.578 L 344.3 90.578 Q 342.201 90.578 341.053 91.865 Q 339.904 93.152 339.904 95.053 Q 339.904 97.072 341.231 98.201 Q 342.557 99.329 344.379 99.329 L 362.872 99.329 Q 364.971 99.329 366.119 98.062 Q 367.268 96.795 367.268 94.894 L 367.268 80.519 Q 367.268 78.5 366.02 77.312 Q 364.773 76.124 362.872 76.124 L 340.261 76.124 L 340.261 66.343 L 362.872 66.343 Q 365.01 66.343 367.485 67.095 Q 369.96 67.848 372.079 69.531 Q 374.197 71.214 375.623 73.926 Q 377.049 76.639 377.049 80.519 Z M 433.281 109.15 L 422.985 109.15 L 422.985 85.39 Q 422.985 83.371 422.292 81.767 Q 421.599 80.163 420.411 79.015 Q 419.223 77.866 417.619 77.253 Q 416.015 76.639 414.154 76.639 L 396.136 76.639 L 396.136 109.15 L 385.84 109.15 L 385.84 71.451 Q 385.84 70.382 386.236 69.451 Q 386.632 68.521 387.345 67.828 Q 388.058 67.135 389.008 66.739 Q 389.959 66.343 391.028 66.343 L 414.233 66.343 Q 416.174 66.343 418.332 66.778 Q 420.49 67.214 422.608 68.184 Q 424.727 69.154 426.648 70.639 Q 428.568 72.124 430.053 74.243 Q 431.538 76.362 432.409 79.133 Q 433.281 81.905 433.281 85.39 Z" style="fill: rgb(246, 245, 248); text-wrap-mode: nowrap;" transform="matrix(0.9999999999999999, 0, 0, 0.9999999999999999, 0, 0)"/><path d="M 154.418 177.523 H 163.432 V 220.595 H 154.418 V 177.523 Z" style="fill: rgb(115, 83, 237); stroke-linejoin: round; stroke-linecap: round; stroke-width: 0; transform-origin: 158.926px 199.059px;" transform="matrix(0.70710701, -0.70710701, 0.70710701, 0.70710701, -85.93884856, -132.49129885)"/><path d="M 153.477 177.669 H 162.437 V 220.776 H 153.477 V 177.669 Z" style="fill: rgb(115, 83, 237); stroke-linejoin: round; stroke-linecap: round; stroke-width: 0; transform-origin: 157.958px 199.223px;" transform="matrix(-0.70710701, -0.70710701, 0.70710701, -0.70710701, -84.96922476, -108.54876495)"/></svg>