<?xml version="1.0" encoding="utf-8"?>
<svg xmlns="http://www.w3.org/2000/svg" viewBox="36.571 175.284 419.684 129.039" width="419.684" height="129.039"><path d="M 139.965 257.544 Q 139.965 260.633 138.895 263.286 Q 137.826 265.939 135.906 267.88 Q 133.985 269.82 131.332 270.909 Q 128.679 271.998 125.55 271.998 L 87.812 271.998 L 87.812 261.702 L 125.55 261.702 Q 127.451 261.702 128.52 260.613 Q 129.59 259.524 129.59 257.544 L 129.59 215.212 L 139.965 215.212 Z M 196.938 257.544 Q 196.938 260.197 196.264 262.316 Q 195.591 264.434 194.482 266.038 Q 193.374 267.642 191.908 268.771 Q 190.443 269.899 188.84 270.612 Q 187.236 271.325 185.592 271.661 Q 183.949 271.998 182.484 271.998 L 163.912 271.998 Q 161.773 271.998 159.239 271.246 Q 156.704 270.493 154.546 268.771 Q 152.388 267.048 150.943 264.296 Q 149.497 261.544 149.497 257.544 L 149.497 243.605 Q 149.497 239.645 150.943 236.893 Q 152.388 234.141 154.546 232.418 Q 156.704 230.696 159.239 229.943 Q 161.773 229.191 163.912 229.191 L 182.484 229.191 Q 186.444 229.191 189.216 230.616 Q 191.988 232.042 193.69 234.2 Q 195.393 236.358 196.165 238.893 Q 196.938 241.427 196.938 243.605 Z M 186.642 243.684 Q 186.642 241.546 185.573 240.516 Q 184.503 239.487 182.484 239.487 L 163.991 239.487 Q 161.932 239.487 160.862 240.536 Q 159.793 241.585 159.793 243.605 L 159.793 257.544 Q 159.793 259.564 160.862 260.633 Q 161.932 261.702 163.991 261.702 L 182.484 261.702 Q 184.583 261.702 185.612 260.633 Q 186.642 259.564 186.642 257.544 Z M 252.895 257.544 Q 252.895 259.009 252.559 260.633 Q 252.222 262.256 251.509 263.86 Q 250.796 265.464 249.668 266.929 Q 248.539 268.394 246.935 269.523 Q 245.332 270.652 243.233 271.325 Q 241.134 271.998 238.481 271.998 L 219.909 271.998 Q 218.443 271.998 216.82 271.661 Q 215.196 271.325 213.593 270.612 Q 211.989 269.899 210.524 268.771 Q 209.058 267.642 207.93 266.038 Q 206.801 264.434 206.128 262.316 Q 205.455 260.197 205.455 257.544 L 205.455 211.094 L 215.751 211.094 L 215.751 257.544 Q 215.751 259.445 216.939 260.573 Q 218.127 261.702 219.909 261.702 L 238.481 261.702 Q 240.421 261.702 241.51 260.554 Q 242.599 259.405 242.599 257.544 L 242.599 243.605 Q 242.599 241.665 241.451 240.576 Q 240.302 239.487 238.481 239.487 L 219.909 239.487 L 219.909 229.191 L 238.481 229.191 Q 239.946 229.191 241.57 229.527 Q 243.193 229.864 244.797 230.577 Q 246.401 231.29 247.866 232.418 Q 249.331 233.547 250.44 235.151 Q 251.549 236.754 252.222 238.853 Q 252.895 240.952 252.895 243.605 Z M 299.898 271.998 L 289.602 271.998 L 289.602 243.605 Q 289.602 241.585 288.533 240.536 Q 287.464 239.487 285.365 239.487 L 271.981 239.487 L 271.981 271.998 L 261.685 271.998 L 261.685 234.299 Q 261.685 233.23 262.081 232.299 Q 262.477 231.369 263.189 230.676 Q 263.902 229.983 264.853 229.587 Q 265.803 229.191 266.872 229.191 L 285.444 229.191 Q 287.583 229.191 290.038 229.943 Q 292.493 230.696 294.711 232.359 L 294.711 229.191 L 308.65 229.191 Q 310.115 229.191 311.739 229.527 Q 313.362 229.864 314.966 230.577 Q 316.57 231.29 318.035 232.418 Q 319.5 233.547 320.609 235.151 Q 321.718 236.754 322.391 238.853 Q 323.064 240.952 323.064 243.605 L 323.064 271.998 L 312.768 271.998 L 312.768 243.605 Q 312.768 241.585 311.758 240.536 Q 310.749 239.487 308.65 239.487 L 299.383 239.487 Q 299.898 241.387 299.898 243.605 Z M 376.712 257.821 Q 376.712 259.96 375.959 262.435 Q 375.207 264.91 373.524 267.028 Q 371.841 269.147 369.128 270.572 Q 366.416 271.998 362.535 271.998 L 343.963 271.998 Q 341.824 271.998 339.349 271.246 Q 336.874 270.493 334.756 268.81 Q 332.637 267.127 331.212 264.415 Q 329.786 261.702 329.786 257.821 Q 329.786 255.683 330.538 253.188 Q 331.291 250.693 332.974 248.575 Q 334.657 246.456 337.369 245.031 Q 340.082 243.605 343.963 243.605 L 362.535 243.605 L 362.535 253.426 L 343.963 253.426 Q 341.864 253.426 340.716 254.713 Q 339.567 256 339.567 257.901 Q 339.567 259.92 340.894 261.049 Q 342.22 262.177 344.042 262.177 L 362.535 262.177 Q 364.634 262.177 365.782 260.91 Q 366.93 259.643 366.93 257.742 L 366.93 243.367 Q 366.93 241.348 365.683 240.16 Q 364.436 238.972 362.535 238.972 L 339.924 238.972 L 339.924 229.191 L 362.535 229.191 Q 364.673 229.191 367.148 229.943 Q 369.623 230.696 371.742 232.379 Q 373.86 234.062 375.286 236.774 Q 376.712 239.487 376.712 243.367 Z M 432.944 271.998 L 422.648 271.998 L 422.648 248.238 Q 422.648 246.219 421.955 244.615 Q 421.262 243.011 420.074 241.863 Q 418.886 240.714 417.282 240.101 Q 415.678 239.487 413.817 239.487 L 395.799 239.487 L 395.799 271.998 L 385.503 271.998 L 385.503 234.299 Q 385.503 233.23 385.899 232.299 Q 386.295 231.369 387.008 230.676 Q 387.721 229.983 388.671 229.587 Q 389.622 229.191 390.691 229.191 L 413.896 229.191 Q 415.837 229.191 417.995 229.626 Q 420.153 230.062 422.271 231.032 Q 424.39 232.002 426.311 233.487 Q 428.231 234.972 429.716 237.091 Q 431.201 239.21 432.072 241.981 Q 432.944 244.753 432.944 248.238 Z" style="fill: rgb(51, 51, 51); text-wrap-mode: nowrap;" transform="matrix(1, 0, 0, 1, 5.684341886080802e-14, 0)"/><g style="" transform="matrix(0.9117879867553711, 0, 0, 0.9117879867553711, 6.695376873016414, -107.54144287109375)"><rect x="176.691" y="194.858" width="10.315" height="47.277" style="fill: rgb(115, 83, 237); stroke-linejoin: round; stroke-linecap: round; stroke-width: 0; transform-origin: 181.849px 218.497px;" transform="matrix(0.707107, -0.707107, 0.707107, 0.707107, -108.898871, 152.626044)"/><rect x="176.691" y="194.858" width="10.315" height="47.277" style="fill: rgb(115, 83, 237); stroke-linejoin: round; stroke-linecap: round; stroke-width: 0; transform-origin: 181.849px 218.497px;" transform="matrix(-0.707107, -0.707107, 0.707107, -0.707107, -108.904958, 178.754573)"/></g></svg>